<svg width="16" height="17" viewBox="0 0 16 17" fill="none" xmlns="http://www.w3.org/2000/svg">
<path d="M0.633948 7.23438C0.922668 7.98384 1.64969 8.51562 2.50091 8.51562C3.60548 8.51562 4.50091 7.62019 4.50091 6.51562C4.50091 5.41106 3.60548 4.51562 2.50091 4.51562C1.39634 4.51562 0.500912 5.41106 0.500912 6.51562C0.500912 6.76897 0.548017 7.01131 0.633948 7.23438ZM0.633948 7.23438C0.288911 6.29381 0.135951 5.76454 0.0555991 4.8125C-0.0615884 2.49735 1.65716 0.585938 5.17279 0.585938C8.86029 0.585938 9.95404 2.4375 10.1728 4.29688C7.59563 6.28551 7.32904 7.375 7.32904 9.375V16.5391M3.46966 16.5391H7.32904M7.32904 16.5391H10.329C14.1415 16.5391 15.454 15.2344 15.454 11.5156V0" stroke="black" stroke-width="0.1"/>
</svg>
