<svg width="14" height="17" viewBox="0 0 14 17" fill="none" xmlns="http://www.w3.org/2000/svg">
<path d="M13.7219 16.9094V6.22186C13.7219 2.04999 11.05 0.0499878 6.97186 0.0499878C1.73749 0.0499878 0.0499878 2.48749 0.0499878 5.48749C0.0499878 7.40908 0.823425 10.3469 0.823425 10.3469C0.823425 10.3469 1.30251 11.8311 1.34686 12.8156C1.42499 14.55 1.37811 16.9094 1.37811 16.9094C3.1281 10.0196 4.01348 7.54218 5.37431 6.22186M5.37431 6.22186C4.90454 6.67638 4.61249 7.31345 4.61249 8.01874C4.61249 9.39945 5.73178 10.5187 7.11249 10.5187C8.4932 10.5187 9.61249 9.39945 9.61249 8.01874C9.61249 6.63803 8.4932 5.51874 7.11249 5.51874C6.43706 5.51874 5.82419 5.78659 5.37431 6.22186Z" stroke="black" stroke-width="0.1"/>
</svg>
