<svg width="14" height="17" viewBox="0 0 14 17" fill="none" xmlns="http://www.w3.org/2000/svg">
<path d="M13.7247 16.6981C13.7247 16.6981 13.7247 8.86993 13.7247 6.01056C13.7247 2.31525 12.6309 1.21368 9.6778 0.0574341L6.9278 2.31525L4.16218 0.0574341C2.22468 0.838684 -0.0409469 1.49493 0.0528031 5.27618C0.0528031 7.19778 0.826241 10.1356 0.826241 10.1356C0.826241 10.1356 1.30533 11.6198 1.34968 12.6043C1.4278 14.3387 1.38093 16.6981 1.38093 16.6981C3.13091 9.80828 4.0163 7.33088 5.37713 6.01056M5.37713 6.01056C4.90736 6.46508 4.6153 7.10215 4.6153 7.80743C4.6153 9.18815 5.73459 10.3074 7.1153 10.3074C8.49601 10.3074 9.6153 9.18815 9.6153 7.80743C9.6153 6.42672 8.49601 5.30743 7.1153 5.30743C6.43988 5.30743 5.82701 5.57528 5.37713 6.01056Z" stroke="black" stroke-width="0.1"/>
</svg>
