<svg width="16" height="18" viewBox="0 0 16 18" fill="none" xmlns="http://www.w3.org/2000/svg">
<path d="M0.632304 7.23438C0.921024 7.98384 1.64804 8.51562 2.49926 8.51562C3.60383 8.51562 4.49926 7.62019 4.49926 6.51562C4.49926 5.41106 3.60383 4.51562 2.49926 4.51562C1.39469 4.51562 0.499263 5.41106 0.499263 6.51562C0.499263 6.76897 0.546373 7.01131 0.632304 7.23438ZM0.632304 7.23438C0.287267 6.29381 0.0135609 5.78406 0.05395 4.8125C0.132616 2.92021 0.632305 1.6875 2.79615 0.8125L4.98364 2.78125L7.16333 0.828125C8.85864 0.828125 10.0085 2.05207 10.1711 4.29688C7.59398 6.28551 7.32739 7.39062 7.32739 9.375L7.34301 15.2344C7.32739 16.2188 6.33185 16.8276 5.78051 16.9844C3.63739 17.5938 2.90424 15.7298 2.8977 14.9062C2.92114 10.7344 11.9211 11.2344 15.4524 17.5938V0" stroke="black" stroke-width="0.1"/>
</svg>
