<svg width="14" height="17" viewBox="0 0 14 17" fill="none" xmlns="http://www.w3.org/2000/svg">
<path d="M4.90878 8.0603C4.56642 7.08778 3.63961 6.3907 2.55 6.3907C1.16929 6.3907 0.0500031 7.50999 0.0500031 8.8907C0.0500031 10.2714 1.16929 11.3907 2.55 11.3907C3.93071 11.3907 5.05 10.2714 5.05 8.8907C5.05 8.5996 5.00025 8.32012 4.90878 8.0603ZM4.90878 8.0603C4.90878 8.0603 5.76529 10.4305 6.38281 11.922C6.81609 12.9684 6.91795 13.297 7.37107 14.297C8.72297 17.2805 13.0896 17.297 13.0896 13.1407L13.0898 5.77352C13.0898 1.23445 7.67107 -2.45305 0.480447 2.2032" stroke="black" stroke-width="0.1"/>
</svg>
