<svg width="18" height="18" viewBox="0 0 18 18" fill="none" xmlns="http://www.w3.org/2000/svg">
<path d="M5.05 8.60945C5.05 9.99017 3.93071 11.1095 2.55 11.1095C1.16929 11.1095 0.0500031 9.99017 0.0500031 8.60945C0.0500031 7.22874 1.16929 6.10945 2.55 6.10945C3.63961 6.10945 4.56641 6.80653 4.90878 7.77905C5.00025 8.03887 5.05 8.31835 5.05 8.60945ZM5.05 8.60945V17.0626C8.58125 10.7032 17.5813 10.2032 17.6047 14.3751C17.5982 15.1986 16.865 17.0626 14.7219 16.4532C14.1705 16.2964 13.175 15.6876 13.1594 14.7032L13.175 8.84383L13.1836 5.77352C13.1836 1.23445 7.76481 -2.45305 0.574183 2.2032" stroke="black" stroke-width="0.1"/>
</svg>
