<svg width="19" height="18" viewBox="0 0 19 18" fill="none" xmlns="http://www.w3.org/2000/svg">
<path d="M0.633951 8.57541C0.922672 9.32488 1.6497 9.85666 2.50093 9.85666C3.60549 9.85666 4.50093 8.96123 4.50093 7.85666C4.50093 6.75209 3.60549 5.85666 2.50093 5.85666C1.39636 5.85666 0.500925 6.75209 0.500925 7.85666C0.500925 8.11 0.548021 8.35235 0.633951 8.57541ZM0.633951 8.57541C0.288914 7.63484 0.135964 7.10557 0.0556125 6.15353C-0.061575 3.83838 1.65718 1.92697 5.1728 1.92697C8.8603 1.92697 9.95405 3.77853 10.1728 5.63791C7.59564 7.62654 7.32905 8.71603 7.32905 10.716V17.8801M3.46968 17.8801H7.32905M7.32905 17.8801H10.3291C14.1416 17.8801 15.4541 16.5754 15.4541 12.8567V8.29416C15.4541 6.79416 14.7902 6.28394 13.8291 5.62228C15.0119 5.09022 16.1192 3.7905 18.7353 0.0285339" stroke="black" stroke-width="0.1"/>
</svg>
