<svg width="19" height="18" viewBox="0 0 19 18" fill="none" xmlns="http://www.w3.org/2000/svg">
<path d="M0.632302 8.57541C0.921023 9.32488 1.64804 9.85666 2.49926 9.85666C3.60383 9.85666 4.49925 8.96123 4.49925 7.85666C4.49925 6.75209 3.60383 5.85666 2.49926 5.85666C1.39469 5.85666 0.499261 6.75209 0.499261 7.85666C0.499261 8.11 0.546372 8.35235 0.632302 8.57541ZM0.632302 8.57541C0.287265 7.63484 0.0135609 7.12509 0.0539501 6.15353C0.132616 4.26124 0.63229 3.02853 2.79613 2.15353L4.98363 4.12228L7.16331 2.16916C8.85862 2.16916 10.0085 3.3931 10.1711 5.63791C7.59396 7.62654 7.32737 8.07541 7.32737 10.716C7.32737 13.5138 7.32737 17.8801 7.32737 17.8801M7.32737 17.8801H3.46806M7.32737 17.8801H10.3274C14.1399 17.8801 15.4524 16.5754 15.4524 12.8567V8.29416C15.4524 6.79416 14.7886 6.28394 13.8274 5.62228C15.0103 5.09022 16.1176 3.7905 18.7337 0.0285339" stroke="black" stroke-width="0.1"/>
</svg>
