<svg width="21" height="18" viewBox="0 0 21 18" fill="none" xmlns="http://www.w3.org/2000/svg">
<path d="M0.540237 14.597C0.540237 15.9777 1.65953 17.097 3.04024 17.097C4.42095 17.097 5.54024 15.9777 5.54024 14.597C5.54024 13.2163 4.42095 12.097 3.04024 12.097C1.65953 12.097 0.540237 13.2163 0.540237 14.597ZM0.540237 14.597V11.4414C0.540237 9.35518 1.91524 8.0039 3.96211 7.6289C3.46061 6.67091 2.69067 6.20386 0.0558624 5.55078C0.540237 2.14453 2.66524 0.722655 6.22774 0.722655C11.814 0.722655 12.509 4.76953 12.509 6.91015V15.2344C12.4934 16.2188 11.4978 16.8276 10.9465 16.9844C8.80336 17.5938 8.07021 15.7298 8.06367 14.9062C8.08711 10.7344 17.0871 11.2344 20.6184 17.5938C20.6184 17.5938 20.6184 6.87079 20.6184 0" stroke="black" stroke-width="0.1"/>
</svg>
