<svg width="22" height="25" viewBox="0 0 22 25" fill="none" xmlns="http://www.w3.org/2000/svg">
<path d="M20.4777 0V11.5156C20.4777 15.2344 19.1652 16.5391 15.3527 16.5391H12.509V6.90688C12.509 4.76625 11.814 0.719374 6.22773 0.719374C2.66523 0.719374 0.540234 2.14125 0.0558586 5.5475C2.69067 6.20058 3.4606 6.66764 3.96211 7.62563C1.91523 8.00063 0.540234 9.3519 0.540234 11.4381V14.5938M0.540234 14.5938C0.540234 15.9745 1.65952 17.0937 3.04023 17.0937C4.42095 17.0937 5.54023 15.9745 5.54023 14.5938C5.54023 13.213 4.42095 12.0938 3.04023 12.0938C1.65952 12.0938 0.540234 13.213 0.540234 14.5938ZM13.328 24.2747C14.6361 24.2747 15.6965 23.2143 15.6965 21.9062C15.6965 20.5982 14.6361 19.5378 13.3281 19.5378C12.02 19.5378 10.9596 20.5982 10.9596 21.9062C10.9596 23.2143 12.02 24.2747 13.328 24.2747ZM13.328 24.2747C16.7562 24.2747 19.7366 22.358 21.2563 19.5378" stroke="black" stroke-width="0.1"/>
</svg>
