<svg width="16" height="26" viewBox="0 0 16 26" fill="none" xmlns="http://www.w3.org/2000/svg">
<path d="M5.04998 14.1906V10.2375C5.04998 8.15126 6.49798 7.11249 8.54486 6.73749C7.75095 6.00311 6.12595 5.01874 3.37595 4.87811C3.86032 1.47186 5.98532 0.0499878 9.54782 0.0499878C15.134 0.0499878 15.8291 4.09686 15.8291 6.23749V25.0031C13.1259 22.2219 10.2076 19.3092 7.54001 19.3547C4.56345 19.3625 4.56345 23.3937 7.54001 23.3937C9.50095 23.3937 10.9221 21.6594 11.4619 17.4875M5.04998 14.1906C5.04998 15.5713 3.9307 16.6906 2.54999 16.6906C1.16928 16.6906 0.0499878 15.5713 0.0499878 14.1906C0.0499878 12.8099 1.16928 11.6906 2.54999 11.6906C3.9307 11.6906 5.04998 12.8099 5.04998 14.1906Z" stroke="black" stroke-width="0.1"/>
</svg>
