<svg width="16" height="26" viewBox="0 0 16 26" fill="none" xmlns="http://www.w3.org/2000/svg">
<path d="M5.04998 14.1906V10.2375C5.04998 8.15126 6.49798 7.11249 8.54486 6.73749C7.75095 6.00311 6.12595 5.01874 3.37595 4.87811C3.86032 1.47186 5.98532 0.0499878 9.54782 0.0499878C15.134 0.0499878 15.8291 4.09686 15.8291 6.23749V25.0031C14.1175 23.2018 13.1321 22.2262 11.2353 20.675C10.832 22.0568 10.3737 22.6297 9.31345 23.4406C7.23533 21.0187 5.39157 19.6359 3.48532 19.6359C0.829073 19.6437 0.368136 23.6702 3.29782 23.6702C6.22751 23.6702 8.73533 19.5187 9.0322 15.5344M5.04998 14.1906C5.04998 15.5713 3.9307 16.6906 2.54999 16.6906C1.16928 16.6906 0.0499878 15.5713 0.0499878 14.1906C0.0499878 12.8099 1.16928 11.6906 2.54999 11.6906C3.9307 11.6906 5.04998 12.8099 5.04998 14.1906Z" stroke="black" stroke-width="0.1"/>
</svg>
