<svg width="15" height="25" viewBox="0 0 15 25" fill="none" xmlns="http://www.w3.org/2000/svg">
<path d="M5.4718 9.51646C5.12943 8.54394 4.20262 7.84686 3.11301 7.84686C1.7323 7.84686 0.613007 8.96615 0.613007 10.3469C0.613007 11.7276 1.7323 12.8469 3.11301 12.8469C4.49372 12.8469 5.61302 11.7276 5.61302 10.3469C5.61302 10.0558 5.56326 9.77628 5.4718 9.51646ZM5.4718 9.51646C5.4718 9.51646 6.3283 11.8867 6.94582 13.3781C7.3791 14.4246 6.94582 13.3781 7.54886 14.7609C8.63908 17.2609 12.5645 15.714 12.5642 14.1281C12.5639 12.5422 12.6113 9.76093 12.6113 9.76093C12.6113 6.26093 11.7364 4.73749 6.94582 4.73749H1.28323C1.61573 1.03434 2.50198 0.0499878 6.0098 0.0499878H14.2832M13.1113 19.3013C13.1113 19.8536 12.6636 20.3013 12.1113 20.3013C11.559 20.3013 11.1113 19.8536 11.1113 19.3013C11.1113 18.749 11.559 18.3013 12.1113 18.3013C12.6636 18.3013 13.1113 18.749 13.1113 19.3013ZM13.1113 19.3013L13.1114 24.7609C11.3998 22.9596 10.0176 22.5422 9.11136 22.2609C8.68948 22.8547 8.43948 23.1359 7.61136 23.7609C7.11136 22.7609 6.73652 22.2723 5.84573 21.4953M6.60355 18.3078C6.40221 19.5204 6.26922 20.2071 5.84573 21.4953M5.84573 21.4953C5.3926 22.6359 3.49142 23.9709 2.05799 23.9709C-0.871695 23.9709 -0.410758 19.9445 2.24549 19.9367C3.44565 19.9367 5.02443 20.6202 5.84573 21.4953Z" stroke="black" stroke-width="0.1"/>
</svg>
