<svg width="20" height="18" viewBox="0 0 20 18" fill="none" xmlns="http://www.w3.org/2000/svg">
<path d="M19.9289 17.5756V2.21626C19.9289 0.0115981 17.4446 -1.28374 15.6946 2.21626L8.06176 17.5756C8.06176 17.5756 8.06176 8.48188 8.06176 7.21626C8.06176 5.95063 9.1443 5.07111 10.1711 4.27876C10.0085 2.03395 8.85864 0.81001 7.16333 0.81001L4.98364 2.76313L2.79615 0.794385C0.632305 1.66939 0.132616 2.90209 0.05395 4.79438C0.0135609 5.76594 0.287267 6.27569 0.632304 7.21626M0.632304 7.21626C0.921024 7.96573 1.64804 8.49751 2.49926 8.49751C3.60383 8.49751 4.49926 7.60208 4.49926 6.49751C4.49926 5.39294 3.60383 4.49751 2.49926 4.49751C1.39469 4.49751 0.499263 5.39294 0.499263 6.49751C0.499263 6.75086 0.546373 6.9932 0.632304 7.21626Z" stroke="black" stroke-width="0.1"/>
</svg>
