<svg width="22" height="18" viewBox="0 0 22 18" fill="none" xmlns="http://www.w3.org/2000/svg">
<path d="M9.6153 8.625C9.6153 10.0057 8.49601 11.125 7.1153 11.125C5.73459 11.125 4.6153 10.0057 4.6153 8.625C4.6153 7.91971 4.90736 7.28264 5.37713 6.82812C5.82701 6.39285 6.43988 6.125 7.1153 6.125C8.49601 6.125 9.6153 7.24429 9.6153 8.625ZM9.6153 8.625C9.59584 10.9531 4.79499 14.75 1.38093 17.5156C1.38093 17.5156 1.4278 15.1562 1.34968 13.4219C1.30533 12.4373 0.826241 10.9531 0.826241 10.9531C0.826241 10.9531 0.0528031 8.01534 0.0528031 6.09375C-0.0409469 2.3125 2.22468 1.65625 4.16218 0.875L6.9278 3.13281L9.6778 0.875C12.6309 2.03125 13.7247 3.13281 13.7247 6.82812C13.7247 9.6875 13.7403 15.2344 13.7403 15.2344C13.7247 16.2188 12.7291 16.8276 12.1778 16.9844C10.0347 17.5938 9.30152 15.7298 9.29499 14.9062C9.31843 10.7344 18.3184 11.2344 21.8497 17.5938V0" stroke="black" stroke-width="0.1"/>
</svg>
