<svg width="26" height="18" viewBox="0 0 26 18" fill="none" xmlns="http://www.w3.org/2000/svg">
<path d="M0.540237 14.5937C0.540237 15.9744 1.65953 17.0937 3.04024 17.0937C4.42095 17.0937 5.54024 15.9744 5.54024 14.5937C5.54024 13.213 4.42095 12.0937 3.04024 12.0937C1.65953 12.0937 0.540237 13.213 0.540237 14.5937ZM0.540237 14.5937V11.4381C0.540237 9.35184 1.91524 8.00056 3.96211 7.62556C3.46061 6.66757 2.69067 6.20052 0.0558624 5.54744C0.540237 2.14119 2.66524 0.719315 6.22774 0.719315C11.814 0.719315 12.509 4.76619 12.509 6.90681V17.0937C14.3906 13.7052 17.8247 11.9803 20.6263 11.7392M20.6263 11.7392C23.0827 11.5279 25.0527 12.4572 25.0637 14.4062C25.0711 15.7343 24.3709 17.7031 22.2278 17.0937C21.2278 16.8094 20.6184 16.2343 20.6184 14.7343L20.6263 11.7392ZM20.6263 11.7392V0" stroke="black" stroke-width="0.1"/>
</svg>
