<svg width="14" height="17" viewBox="0 0 14 17" fill="none" xmlns="http://www.w3.org/2000/svg">
<path d="M9.6125 8.01874C9.6125 9.39945 8.49321 10.5187 7.1125 10.5187C5.73179 10.5187 4.6125 9.39945 4.6125 8.01874C4.6125 7.31345 4.90456 6.67638 5.37433 6.22186C5.82421 5.78659 6.43708 5.51874 7.1125 5.51874C8.49321 5.51874 9.6125 6.63803 9.6125 8.01874ZM9.6125 8.01874C9.6125 9.87811 8.41083 11.9403 1.37813 16.9094C1.37813 16.9094 1.425 14.55 1.34688 12.8156C1.30253 11.8311 0.823441 10.3469 0.823441 10.3469C0.823441 10.3469 0.0500031 7.40908 0.0500031 5.48749C0.0500031 2.48749 1.7375 0.0499878 6.97188 0.0499878C11.05 0.0499878 13.7219 2.04999 13.7219 6.22186V16.9094" stroke="black" stroke-width="0.1"/>
</svg>
