<svg width="14" height="17" viewBox="0 0 14 17" fill="none" xmlns="http://www.w3.org/2000/svg">
<path d="M9.61532 7.80743C9.61532 9.18815 8.49603 10.3074 7.11532 10.3074C5.73461 10.3074 4.61532 9.18815 4.61532 7.80743C4.61532 7.10215 4.90737 6.46508 5.37714 6.01056C5.82703 5.57528 6.43989 5.30743 7.11532 5.30743C8.49603 5.30743 9.61532 6.42672 9.61532 7.80743ZM9.61532 7.80743C9.59586 10.1356 4.79501 13.9324 1.38094 16.6981C1.38094 16.6981 1.42782 14.3387 1.34969 12.6043C1.30534 11.6198 0.826256 10.1356 0.826256 10.1356C0.826256 10.1356 0.0528184 7.19778 0.0528184 5.27618C-0.0409316 1.49493 2.22469 0.838684 4.16219 0.0574341L6.92782 2.31525L9.67782 0.0574341C12.6309 1.21368 13.7247 2.31525 13.7247 6.01056C13.7247 8.86993 13.7247 16.6981 13.7247 16.6981" stroke="black" stroke-width="0.1"/>
</svg>
