<svg width="18" height="18" viewBox="0 0 18 18" fill="none" xmlns="http://www.w3.org/2000/svg">
<path d="M5.05 2.8125C5.05 4.19321 3.93071 5.3125 2.55 5.3125C1.16929 5.3125 0.0499992 4.19324 0.0499992 2.81253C0.0499992 1.43182 1.16929 0.3125 2.55 0.3125C3.93071 0.3125 5.05 1.43179 5.05 2.8125ZM5.05 2.8125V17.5938C6.93156 14.2053 10.3658 12.4803 13.1674 12.2393M13.1674 12.2393C15.6237 12.028 17.5937 12.9573 17.6047 14.9063C17.6121 16.2344 16.9119 18.2031 14.7688 17.5938C13.7688 17.3094 13.1594 16.7344 13.1594 15.2344L13.1674 12.2393ZM13.1674 12.2393L13.1594 3.05176e-05" stroke="black" stroke-width="0.1"/>
</svg>
