<svg width="18" height="19" viewBox="0 0 18 19" fill="none" xmlns="http://www.w3.org/2000/svg">
<path d="M13.7219 18.8846V8.19713C13.7219 4.02525 11.05 2.02525 6.97188 2.02525C1.7375 2.02525 0.0500031 4.46275 0.0500031 7.46275C0.0500031 9.38434 0.823441 12.3221 0.823441 12.3221C0.823441 12.3221 1.30253 13.8063 1.34688 14.7909C1.425 16.5253 1.37813 18.8846 1.37813 18.8846C3.12811 11.9948 4.0135 9.51745 5.37433 8.19713M8.175 7.73037C7.85254 7.57875 7.49242 7.494 7.1125 7.494C6.43708 7.494 5.82421 7.76185 5.37433 8.19713C4.90456 8.65165 4.6125 9.28872 4.6125 9.994C4.6125 11.3747 5.73179 12.494 7.1125 12.494C8.49321 12.494 9.6125 11.3747 9.6125 9.994C9.6125 8.99321 9.02444 8.12976 8.175 7.73037ZM8.175 7.73037C12.5387 6.0898 14.5338 4.45777 17.1281 0.0252533" stroke="black" stroke-width="0.1"/>
</svg>
