<svg width="20" height="17" viewBox="0 0 20 17" fill="none" xmlns="http://www.w3.org/2000/svg">
<path d="M5.05 2.81247C5.05 4.19318 3.93071 5.31247 2.55 5.31247C1.16929 5.31247 0.0499992 4.19321 0.0499992 2.8125C0.0499992 1.43179 1.16929 0.312469 2.55 0.312469C3.93071 0.312469 5.05 1.43176 5.05 2.81247ZM5.05 2.81247V16.5391M1.08125 16.5391H5.05M15.8625 0V11.5156C15.8625 15.2344 14.55 16.5391 10.7375 16.5391H7.7375H5.05M10.4719 10.9062C11.7799 10.9062 12.8403 9.84587 12.8403 8.53783C12.8403 7.22979 11.7799 6.16941 10.4719 6.16941C9.16384 6.16941 8.10346 7.22979 8.10346 8.53783C8.10346 9.84587 9.16383 10.9062 10.4719 10.9062ZM10.4719 10.9062C13.9 10.9062 19.1571 8.53783 19.8703 4.10938" stroke="black" stroke-width="0.1"/>
</svg>
