<svg width="16" height="19" viewBox="0 0 16 19" fill="none" xmlns="http://www.w3.org/2000/svg">
<path d="M0.0271778 4.07034C7.2178 -0.585908 13.9491 2.50002 13.9491 8.34377V18.8594C11.7152 13.1312 8.68659 10.4031 6.15218 9.67854M1.2928 16.1719C1.2928 17.5526 2.41209 18.6719 3.7928 18.6719C5.17351 18.6719 6.2928 17.5526 6.2928 16.1719C6.2928 14.7912 5.17351 13.6719 3.7928 13.6719C2.41209 13.6719 1.2928 14.7912 1.2928 16.1719ZM1.2928 16.1719V13.0162C1.2928 10.4229 3.43942 8.90298 6.15218 9.67854M15.5116 0C15.5116 4.5 12.8935 7.10057 6.15218 9.67854" stroke="black" stroke-width="0.1"/>
</svg>
