<svg width="17" height="18" viewBox="0 0 17 18" fill="none" xmlns="http://www.w3.org/2000/svg">
<path d="M5.04999 2.55C5.04999 3.93071 3.9307 5.05 2.54999 5.05C1.16928 5.05 0.0499878 3.93075 0.0499878 2.55003C0.0499878 1.16932 1.16928 0.0500031 2.54999 0.0500031C3.9307 0.0500031 5.04999 1.16929 5.04999 2.55ZM5.04999 2.55V17.3313C7.44924 11.4939 9.84686 8.97188 15.3319 4.44208C15.7483 3.99552 16.0031 3.39627 16.0031 2.7375C16.0031 1.35679 14.8838 0.237503 13.5031 0.237503C12.1224 0.237503 11.0031 1.35682 11.0031 2.73753C11.0031 3.48296 11.3294 4.15219 11.8469 4.61021C15.5437 7.73083 15.4094 10.5656 15.4094 17.3313" stroke="black" stroke-width="0.1"/>
</svg>
