<svg width="22" height="22" viewBox="0 0 22 22" fill="none" xmlns="http://www.w3.org/2000/svg">
<path d="M5.04999 6.9028C5.04999 8.28351 3.9307 9.4028 2.54999 9.4028C1.16928 9.4028 0.0499878 8.28354 0.0499878 6.90283C0.0499878 5.52212 1.16928 4.4028 2.54999 4.4028C3.9307 4.4028 5.04999 5.52208 5.04999 6.9028ZM5.04999 6.9028V21.684L10.8391 4.24655L16.8156 21.684V4.0903M16.8156 4.0903C17.8977 4.0903 18.775 3.18586 18.775 2.07016C18.775 0.954459 17.8977 0.0500031 16.8156 0.0500031C15.7335 0.0500031 14.8563 0.954459 14.8563 2.07016C14.8563 3.18586 15.7335 4.0903 16.8156 4.0903ZM16.8156 4.0903C19.6516 4.0903 20.6991 2.45549 21.9562 0.0500031" stroke="black" stroke-width="0.1"/>
</svg>
