<svg width="14" height="18" viewBox="0 0 14 18" fill="none" xmlns="http://www.w3.org/2000/svg">
<path d="M0.910735 11.6038C0.910735 12.9845 2.03002 14.1038 3.41074 14.1038C4.79145 14.1038 5.91074 12.9845 5.91074 11.6038C5.91074 11.3127 5.86098 11.0333 5.76952 10.7734C5.42715 9.80091 4.50035 9.10384 3.41074 9.10384C2.03002 9.10384 0.910735 10.2231 0.910735 11.6038ZM0.910735 11.6038L0.96466 16.01C0.96466 17.01 1.70176 17.807 2.98028 17.807H8.46466C9.68341 17.807 11.9574 17.9351 11.9574 15.3773C11.9574 15.3773 11.9576 10.9687 11.9576 8.01009C11.9576 6.93973 11.7902 5.42982 11.2389 4.38509M13.3014 0.0100861C12.8424 2.23952 12.0826 3.39345 11.2389 4.38509M11.2389 4.38509C10.4341 2.8602 8.09938 1.94399 5.76952 1.73376C2.94272 1.4787 0.123004 2.26287 0.0513605 4.26009C-0.0174964 6.1796 2.51492 6.78896 5.23055 6.57879C7.66933 6.39005 10.2559 5.54036 11.2389 4.38509Z" stroke="black" stroke-width="0.1"/>
</svg>
