<svg width="13" height="8" viewBox="0 0 13 8" fill="none" xmlns="http://www.w3.org/2000/svg">
<path d="M11.162 0V5.19263M11.162 5.19263C11.5214 5.74336 11.8267 6.34865 12.0782 7.00848C10.3401 6.53036 8.44383 6.13097 6.38937 5.81033C4.33422 5.47156 2.22672 5.34369 0.066864 5.42674C0.409875 4.21465 0.973376 3.32105 1.75737 2.74595C2.54066 2.1527 3.56282 1.83184 4.82385 1.78335C5.62877 1.7524 6.40537 1.85878 7.15367 2.10249C7.88786 2.32857 8.57292 2.67462 9.20885 3.14062C9.83067 3.58901 10.3892 4.13974 10.8846 4.79281C10.9804 4.92272 11.0729 5.056 11.162 5.19263Z" stroke="black" stroke-width="0.1"/>
</svg>
