<svg width="13" height="6" viewBox="0 0 13 6" fill="none" xmlns="http://www.w3.org/2000/svg">
<path d="M9.57985 1.57264C9.57985 1.97868 9.72873 2.32381 10.0265 2.60804C10.3243 2.89226 10.6829 3.03438 11.1025 3.03438C11.495 3.03438 11.8401 2.89226 12.1379 2.60804C12.4221 2.32381 12.5642 1.97868 12.5642 1.57264C12.5642 1.15307 12.4221 0.794405 12.1379 0.496644C11.8401 0.198883 11.495 0.0500031 11.1025 0.0500031C10.6829 0.0500031 10.3243 0.198883 10.0265 0.496644C9.72873 0.794405 9.57985 1.15307 9.57985 1.57264Z" stroke="black" stroke-width="0.1"/>
<path d="M1.75737 1.52993C2.54066 0.936687 3.56282 0.615823 4.82385 0.567335C5.62877 0.536386 6.40537 0.642764 7.15367 0.88647C7.88786 1.11255 8.57292 1.4586 9.20885 1.92461C9.83067 2.37299 10.3892 2.92372 10.8846 3.57679C11.3665 4.23037 11.7644 4.96893 12.0782 5.79247C10.3401 5.31434 8.44383 4.91496 6.38937 4.59432C4.33422 4.25554 2.22672 4.12767 0.066864 4.21072C0.409875 2.99863 0.973376 2.10503 1.75737 1.52993Z" stroke="black" stroke-width="0.1"/>
</svg>
