<svg width="13" height="8" viewBox="0 0 13 8" fill="none" xmlns="http://www.w3.org/2000/svg">
<path d="M11.162 0V5.19263M7.92191 2.39081C8.37117 2.5912 8.80015 2.84114 9.20883 3.14062C9.83065 3.58901 10.3892 4.13974 10.8846 4.79281C10.9804 4.92272 11.0728 5.056 11.162 5.19263C11.5213 5.74336 11.8267 6.34865 12.0782 7.00848C10.3401 6.53036 8.44382 6.13097 6.38936 5.81033C4.3342 5.47156 2.2267 5.34369 0.0668488 5.42674C0.40986 4.21465 0.97336 3.32105 1.75735 2.74595C2.54064 2.1527 3.56281 1.83184 4.82384 1.78335C5.62875 1.7524 6.40536 1.85878 7.15366 2.10249C7.41601 2.18328 7.6721 2.27938 7.92191 2.39081ZM7.92191 0V2.39081" stroke="black" stroke-width="0.1"/>
</svg>
