<svg width="11" height="7" viewBox="0 0 11 7" fill="none" xmlns="http://www.w3.org/2000/svg">
<path d="M0.478129 5.23131C0.690408 5.76195 1.22494 6.13847 1.85079 6.13847C2.66291 6.13847 3.32127 5.50448 3.32127 4.72241C3.32127 3.94035 2.66291 3.30635 1.85079 3.30635C1.03867 3.30635 0.380312 3.94035 0.380312 4.72241C0.380312 4.90179 0.41495 5.07337 0.478129 5.23131ZM0.478129 5.23131C0.224445 4.56536 0.0232053 4.20444 0.052901 3.51655C0.110739 2.17675 0.47813 1.30396 2.06907 0.684433L3.67741 2.07837L5.28 0.695496C7.6738 1.33672 7.55303 5.06905 6.66333 6.09427C10.1212 5.71379 10.8546 4.16502 10.8977 0.000518799" stroke="black" stroke-width="0.1"/>
</svg>
