<svg width="12" height="15" viewBox="0 0 12 15" fill="none" xmlns="http://www.w3.org/2000/svg">
<path d="M11.8312 0C11.8312 2.35938 8.34896 6.875 2.54997 6.875M2.54997 6.875C3.93068 6.875 5.04999 5.75571 5.04999 4.375C5.04999 2.99429 3.9307 1.875 2.54999 1.875C1.16928 1.875 0.049988 2.99429 0.049988 4.375C0.049988 5.75571 1.16926 6.875 2.54997 6.875ZM11.8312 7.71875C11.8312 10.0781 8.34896 14.5938 2.54997 14.5938M2.54997 14.5938C3.93068 14.5938 5.04999 13.4745 5.04999 12.0938C5.04999 10.713 3.9307 9.59375 2.54999 9.59375C1.16928 9.59375 0.0499878 10.713 0.0499878 12.0938C0.0499878 13.4745 1.16926 14.5938 2.54997 14.5938Z" stroke="black" stroke-width="0.1"/>
</svg>
