<svg width="14" height="18" viewBox="0 0 14 18" fill="none" xmlns="http://www.w3.org/2000/svg">
<path d="M0.0500031 0V14.7812M0.0500031 14.7812C0.0500031 13.4005 1.16929 12.2812 2.55 12.2812C3.93071 12.2812 5.05 13.4005 5.05 14.7812C5.05 16.1619 3.93071 17.2812 2.55 17.2812C1.16929 17.2812 0.0500031 16.162 0.0500031 14.7812ZM8.45625 0V14.7812M8.45625 14.7812C8.45625 13.4005 9.57554 12.2812 10.9563 12.2812C12.337 12.2812 13.4563 13.4005 13.4563 14.7812C13.4563 16.1619 12.337 17.2812 10.9563 17.2812C9.57554 17.2812 8.45625 16.162 8.45625 14.7812Z" stroke="black" stroke-width="0.1"/>
</svg>
