<svg width="13" height="32" viewBox="0 0 13 32" fill="none" xmlns="http://www.w3.org/2000/svg">
<path d="M0.633953 6.69844C0.922673 7.44791 1.6497 7.97969 2.50092 7.97969C3.60549 7.97969 4.50092 7.08426 4.50092 5.97969C4.50092 4.87512 3.60549 3.97969 2.50092 3.97969C1.39635 3.97969 0.500912 4.87512 0.500912 5.97969C0.500912 6.23304 0.548022 6.47538 0.633953 6.69844ZM0.633953 6.69844C0.288916 5.75787 0.135951 5.2286 0.0555991 4.27657C-0.0615884 1.96141 1.65717 0.0500031 5.17279 0.0500031C8.86029 0.0500031 9.95404 1.90157 10.1728 3.76094C7.59563 5.74958 7.32904 6.83907 7.32904 8.83907V28.6203M7.32904 28.6203C7.32904 27.2396 8.44833 26.1203 9.82904 26.1203C11.2098 26.1203 12.329 27.2396 12.329 28.6203C12.329 30.001 11.2098 31.1203 9.82904 31.1203C8.44833 31.1203 7.32904 30.001 7.32904 28.6203Z" stroke="black" stroke-width="0.1"/>
</svg>
