<svg width="16" height="23" viewBox="0 0 16 23" fill="none" xmlns="http://www.w3.org/2000/svg">
<path d="M4.00477 1.01783C4.78807 0.424586 5.81023 0.103722 7.07126 0.0552344C7.87617 0.0242848 8.65278 0.130663 9.40108 0.374369C10.1353 0.600452 10.8203 0.946498 11.4563 1.41251C12.0781 1.86089 12.6367 2.41162 13.132 3.06469C13.6139 3.71827 14.0118 4.45683 14.3256 5.28036C12.5875 4.80224 10.6912 4.40285 8.63678 4.08221C6.58162 3.74344 4.47412 3.61557 2.31427 3.69862C2.65728 2.48653 3.22078 1.59293 4.00477 1.01783Z" stroke="black" stroke-width="0.1"/>
<path d="M15.05 15.3969C15.05 19.539 11.6921 22.8969 7.54999 22.8969C3.40785 22.8969 0.0499878 19.539 0.0499878 15.3969C0.0499878 11.2548 3.40785 7.8969 7.54999 7.8969C11.6921 7.8969 15.05 11.2548 15.05 15.3969Z" stroke="black" stroke-width="0.1"/>
</svg>
