<svg width="16" height="25" viewBox="0 0 16 25" fill="none" xmlns="http://www.w3.org/2000/svg">
<path d="M13.8313 0V5.19263M13.8313 5.19263C14.1906 5.74336 14.496 6.34865 14.7475 7.00848C13.0094 6.53036 11.1131 6.13097 9.05865 5.81033C7.0035 5.47156 4.896 5.34369 2.73615 5.42674C3.07916 4.21465 3.64266 3.32105 4.42665 2.74595C5.20994 2.1527 6.2321 1.83184 7.49314 1.78335C8.29805 1.7524 9.07466 1.85878 9.82295 2.10249C10.5571 2.32857 11.2422 2.67462 11.8781 3.14062C12.4999 3.58901 13.0585 4.13974 13.5539 4.79281C13.6497 4.92272 13.7421 5.056 13.8313 5.19263Z" stroke="black" stroke-width="0.1"/>
<path d="M15.05 16.7188C15.05 20.8609 11.6921 24.2188 7.54999 24.2188C3.40785 24.2188 0.0499878 20.8609 0.0499878 16.7188C0.0499878 12.5766 3.40785 9.21875 7.54999 9.21875C11.6921 9.21875 15.05 12.5766 15.05 16.7188Z" stroke="black" stroke-width="0.1"/>
</svg>
