<svg width="16" height="25" viewBox="0 0 16 25" fill="none" xmlns="http://www.w3.org/2000/svg">
<path d="M9.83783 20.6906C9.83783 21.5191 9.16626 22.1906 8.33783 22.1906C7.5094 22.1906 6.83783 21.5191 6.83783 20.6906C6.83783 19.8622 7.5094 19.1906 8.33783 19.1906C9.16626 19.1906 9.83783 19.8622 9.83783 20.6906ZM9.83783 20.6906V24.4094H14.4875L14.5578 19.0969" stroke="black" stroke-width="0.1"/>
<path d="M15.05 7.55C15.05 11.6921 11.6921 15.05 7.55 15.05C3.40787 15.05 0.0500031 11.6921 0.0500031 7.55C0.0500031 3.40787 3.40787 0.0500031 7.55 0.0500031C11.6921 0.0500031 15.05 3.40787 15.05 7.55Z" stroke="black" stroke-width="0.1"/>
</svg>
