<svg width="18" height="23" viewBox="0 0 18 23" fill="none" xmlns="http://www.w3.org/2000/svg">
<path d="M17.7141 0.0344003C17.7141 2.39378 14.8312 5.22189 10.9875 5.05M10.9875 5.05C12.3682 5.05 13.4875 3.93071 13.4875 2.55C13.4875 1.16929 12.3682 0.05 10.9875 0.05C9.60678 0.05 8.48749 1.16929 8.48749 2.55C8.48749 3.93071 9.60676 5.05 10.9875 5.05Z" stroke="black" stroke-width="0.1"/>
<path d="M15.05 15.0031C15.05 19.1453 11.6921 22.5031 7.54999 22.5031C3.40785 22.5031 0.0499878 19.1453 0.0499878 15.0031C0.0499878 10.861 3.40785 7.50314 7.54999 7.50314C11.6921 7.50314 15.05 10.861 15.05 15.0031Z" stroke="black" stroke-width="0.1"/>
</svg>
