<svg width="16" height="23" viewBox="0 0 16 23" fill="none" xmlns="http://www.w3.org/2000/svg">
<path d="M12.214 1.57264C12.214 1.97868 12.3629 2.32381 12.6606 2.60804C12.9584 2.89226 13.3171 3.03438 13.7366 3.03438C14.1292 3.03438 14.4743 2.89226 14.772 2.60804C15.0563 2.32381 15.1984 1.97868 15.1984 1.57264C15.1984 1.15307 15.0563 0.794405 14.772 0.496644C14.4743 0.198883 14.1292 0.0500031 13.7366 0.0500031C13.3171 0.0500031 12.9584 0.198883 12.6606 0.496644C12.3629 0.794405 12.214 1.15307 12.214 1.57264Z" stroke="black" stroke-width="0.1"/>
<path d="M4.39152 1.52993C5.17481 0.936687 6.19698 0.615823 7.45801 0.567335C8.26292 0.536386 9.03953 0.642764 9.78783 0.88647C10.522 1.11255 11.2071 1.4586 11.843 1.92461C12.4648 2.37299 13.0234 2.92372 13.5187 3.57679C14.0007 4.23037 14.3985 4.96893 14.7123 5.79247C12.9743 5.31434 11.078 4.91496 9.02353 4.59432C6.96837 4.25554 4.86087 4.12767 2.70102 4.21072C3.04403 2.99863 3.60753 2.10503 4.39152 1.52993Z" stroke="black" stroke-width="0.1"/>
<path d="M7.54999 22.7955C11.6921 22.7955 15.05 19.4377 15.05 15.2955C15.05 11.1534 11.6921 7.79553 7.54999 7.79553C3.40785 7.79553 0.0499878 11.1534 0.0499878 15.2955C0.0499878 19.4377 3.40785 22.7955 7.54999 22.7955Z" stroke="black" stroke-width="0.1"/>
</svg>
