<svg width="16" height="25" viewBox="0 0 16 25" fill="none" xmlns="http://www.w3.org/2000/svg">
<path d="M13.837 0V5.19263M10.5969 2.39081C11.0461 2.5912 11.4751 2.84114 11.8838 3.14062C12.5056 3.58901 13.0642 4.13974 13.5595 4.79281C13.6553 4.92272 13.7478 5.056 13.837 5.19263C14.1963 5.74336 14.5017 6.34865 14.7531 7.00848C13.0151 6.53036 11.1188 6.13097 9.06433 5.81033C7.00917 5.47156 4.90167 5.34369 2.74182 5.42674C3.08483 4.21465 3.64833 3.32105 4.43232 2.74595C5.21562 2.1527 6.23778 1.83184 7.49881 1.78335C8.30372 1.7524 9.08033 1.85878 9.82863 2.10249C10.091 2.18328 10.3471 2.27938 10.5969 2.39081ZM10.5969 0V2.39081" stroke="black" stroke-width="0.1"/>
<path d="M15.05 16.7188C15.05 20.8609 11.6921 24.2188 7.55 24.2188C3.40787 24.2188 0.0500031 20.8609 0.0500031 16.7188C0.0500031 12.5766 3.40787 9.21875 7.55 9.21875C11.6921 9.21875 15.05 12.5766 15.05 16.7188Z" stroke="black" stroke-width="0.1"/>
</svg>
